#!OML:ASF X:\für Bonn\!DataBase\2005_08_12_Daniel\c3d\Daniel.ASF
:FULLY-SPECIFIED
:DEGREES
316
root 18.3702 1.77106 0.48616 -1713.83 258.851 151.694
lowerback 36.8614 -2.47163 0.32003
upperback 6.43075 -4.45295 -4.61861
thorax -11.5765 -2.45811 -3.20965
lowerneck -5.30058 2.85226 -3.42557
upperneck -1.39194 3.89825 -0.938274
head 0.3948 1.90899 0.345102
rclavicle 3.22031e-014 1.34044e-013
rhumerus -359.987 12.6798 314.033
rradius 117.42
rwrist -7.21225
rhand -46.4525 759.011
rfingers 7.12502
rthumb -19.1809 729.937
lclavicle 3.22031e-014 1.34044e-013
lhumerus -514.995 164.45 -503.617
lradius 124.515
lwrist 27.0532
lhand -33.63 -739.855
lfingers 7.12502
lthumb -6.82243 10.0147
rfemur -571.126 -170.382 551.27
rtibia 75.1596
rfoot 7.0164 -4.0749
rtoes 23.515
lfemur -15.4142 741.595 -22.7311
ltibia 93.3797
lfoot 56.9867 504.664
ltoes -29.8525
317
root 18.3931 1.74419 0.488655 -1714.02 258.837 152.063
lowerback 36.6841 -2.456 0.313267
upperback 6.374 -4.42941 -4.64155
thorax -11.5769 -2.44381 -3.24608
lowerneck -5.63134 2.87484 -3.44604
upperneck -1.17937 3.94646 -0.947701
head 0.514789 1.92782 0.355506
rclavicle -6.55989e-014 -5.4342e-014
rhumerus -359.813 12.4448 314.119
rradius 117.568
rwrist -7.71787
rhand -46.3329 759.108
rfingers 7.12502
rthumb -19.0658 730.023
lclavicle -6.55989e-014 -5.4342e-014
lhumerus -515.035 164.301 -503.839
lradius 124.469
lwrist 27.2057
lhand -33.6293 -739.805
lfingers 7.12502
lthumb -6.82176 10.0646
rfemur -570.127 -170.583 551.234
rtibia 74.7498
rfoot 7.49889 -4.38849
rtoes 23.9478
lfemur -15.6157 741.395 -23.0328
ltibia 93.2663
lfoot 59.3558 508.097
ltoes -28.5083
318
root 18.4122 1.71644 0.489982 -1714.21 258.83 152.435
lowerback 36.4946 -2.44078 0.316387
upperback 6.3224 -4.40383 -4.67603
thorax -11.5683 -2.4292 -3.30148
lowerneck -6.01897 2.90234 -3.39983
upperneck -0.918985 4.00119 -0.969388
head 0.661411 1.94872 0.353392
rclavicle -1.66979e-014 -3.50094e-014
rhumerus -359.686 12.2458 314.157
rradius 117.681
rwrist -8.2174
rhand -46.2042 759.291
rfingers 7.12502
rthumb -18.9421 730.194
lclavicle -1.66979e-014 -3.50094e-014
lhumerus -515.117 164.231 -504.115
lradius 124.403
lwrist 27.3972
lhand -33.6951 -739.793
lfingers 7.12502
lthumb -6.88526 10.0748
rfemur -569.129 -170.834 551.208
rtibia 74.3342
rfoot 7.9561 -4.68397
rtoes 24.507
lfemur -15.6687 741.199 -23.2749
ltibia 93.1571
lfoot 61.4263 511.14
ltoes -26.8222
319
root 18.4272 1.68905 0.489886 -1714.33 258.831 152.739
lowerback 36.3028 -2.42531 0.324585
upperback 6.27138 -4.37435 -4.70029
thorax -11.5568 -2.41282 -3.35027
lowerneck -6.39435 2.91505 -3.40378
upperneck -0.664216 4.03876 -0.967938
head 0.804168 1.96159 0.366208
rclavicle 3.33958e-014 -1.09895e-013
rhumerus -359.628 12.0919 314.195
rradius 117.827
rwrist -8.83836
rhand -45.9847 759.468
rfingers 7.12502
rthumb -18.7309 730.35
lclavicle 3.33958e-014 -1.09895e-013
lhumerus -515.215 164.241 -504.39
lradius 124.313
lwrist 27.5345
lhand -33.7915 -739.672
lfingers 7.12502
lthumb -6.97832 10.1934
rfemur -568.137 -171.137 551.199
rtibia 73.9299
rfoot 8.31474 -4.97983
rtoes 25.0976
lfemur -15.6387 741.035 -23.4575
ltibia 93.0482
lfoot 63.3908 513.845
ltoes -25.0852
320
root 18.4347 1.66157 0.488701 -1714.34 258.827 152.938
lowerback 36.0097 -2.41491 0.317049
upperback 6.31214 -4.35334 -4.71789
thorax -11.5226 -2.40102 -3.358
lowerneck -6.80029 2.93321 -3.40923
upperneck -0.420985 4.08422 -0.997909
head 0.950012 1.97734 0.370474
rclavicle 2.46493e-014 4.78792e-014
rhumerus -359.578 12.0125 314.229
rradius 117.947
rwrist -9.39771
rhand -45.7882 759.592
rfingers 7.12502
rthumb -18.5419 730.455
lclavicle 2.46493e-014 4.78792e-014
lhumerus -515.415 164.312 -504.703
lradius 124.186
lwrist 27.695
lhand -34.0036 -739.647
lfingers 7.12502
lthumb -7.18302 10.2115
rfemur -567.172 -171.426 551.2
rtibia 73.5575
rfoot 8.61417 -5.19307
rtoes 25.5268
lfemur -15.5317 740.876 -23.6452
ltibia 92.9317
lfoot 65.237 516.08
ltoes -23.1842
321
root 18.4383 1.63543 0.486014 -1714.49 258.814 153.303
lowerback 35.7761 -2.39881 0.297061
upperback 6.24626 -4.33328 -4.74937
thorax -11.5115 -2.38778 -3.39641
lowerneck -7.18747 2.96252 -3.38678
upperneck -0.137656 4.14345 -0.997001
head 1.10628 2.00037 0.380488
rclavicle 5.20816e-014 -3.94028e-014
rhumerus -359.619 12.0076 314.213
rradius 118.07
rwrist -9.89324
rhand -45.6756 759.658
rfingers 7.12502
rthumb -18.4337 730.512
lclavicle 5.20816e-014 -3.94028e-014
lhumerus -515.648 164.471 -505.059
lradius 124.032
lwrist 27.9217
lhand -34.2306 -739.745
lfingers 7.12502
lthumb -7.4022 10.1057
rfemur -566.251 -171.785 551.21
rtibia 73.1988
rfoot 8.89811 -5.4497
rtoes 26.0644
lfemur -15.3655 740.776 -23.8464
ltibia 92.7967
lfoot 67.1235 517.902
ltoes -21.122
322
root 18.4392 1.60829 0.481692 -1714.53 258.806 153.535
lowerback 35.5573 -2.37814 0.272769
upperback 6.20061 -4.30749 -4.76352
thorax -11.4798 -2.37241 -3.41605
lowerneck -7.55129 2.97519 -3.32786
upperneck 0.0887146 4.17561 -1.05223
head 1.24363 2.00949 0.365199
rclavicle -4.09496e-014 -2.18197e-014
rhumerus -359.68 12.0202 314.196
rradius 118.151
rwrist -10.2919
rhand -45.568 759.77
rfingers 7.12502
rthumb -18.3302 730.613
lclavicle -4.09496e-014 -2.18197e-014
lhumerus -515.876 164.697 -505.38
lradius 123.879
lwrist 28.1157
lhand -34.4645 -739.756
lfingers 7.12502
lthumb -7.62794 10.0867
rfemur -565.307 -172.12 551.244
rtibia 72.8363
rfoot 9.16458 -5.64433
rtoes 26.4028
lfemur -15.1297 740.726 -24.0183
ltibia 92.6931
lfoot 69.1031 519.547
ltoes -18.782
